<?xml version="1.0" encoding="iso-8859-1"?>
<!-- Uploaded to: SVG Repo, www.svgrepo.com, Generator: SVG Repo Mixer Tools -->
<svg height="800px" width="800px" version="1.1" id="Layer_1" xmlns="http://www.w3.org/2000/svg" xmlns:xlink="http://www.w3.org/1999/xlink" 
	 viewBox="0 0 512.004 512.004" xml:space="preserve">
<polygon style="fill:#A0BF7C;" points="184.768,345.534 155.531,140.904 501.85,140.904 443.385,345.534 "/>
<path style="fill:#FF877F;" d="M396.474,217.64c-56.418,0-102.315-45.897-102.315-102.315S340.056,13.011,396.474,13.011
	s102.315,45.897,102.315,102.315S452.892,217.64,396.474,217.64z"/>
<g>
	<path style="fill:#FEDEA1;" d="M153.476,499.006c-28.213,0-51.157-22.944-51.157-51.157c0-28.213,22.944-51.157,51.157-51.157
		s51.157,22.944,51.157,51.157C204.634,476.062,181.69,499.006,153.476,499.006z"/>
	<path style="fill:#FEDEA1;" d="M409.263,499.006c-28.213,0-51.157-22.944-51.157-51.157c0-28.213,22.944-51.157,51.157-51.157
		c28.213,0,51.157,22.944,51.157,51.157C460.421,476.062,437.476,499.006,409.263,499.006z"/>
</g>
<g>
	<circle style="fill:#573A32;" cx="153.476" cy="447.806" r="12.789"/>
	<circle style="fill:#573A32;" cx="409.263" cy="447.806" r="12.789"/>
	<path style="fill:#573A32;" d="M498.789,435.059h-26.866c-5.926-29.185-31.718-51.157-62.659-51.157
		c-30.933,0-56.734,21.972-62.659,51.157H216.102c-5.721-27.992-29.799-49.188-59.129-50.808l-42.009-283.591
		c-0.401-2.72-1.671-5.218-3.607-7.171L21.831,3.965c-4.996-4.996-13.088-4.996-18.084,0s-4.996,13.088,0,18.084l86.541,86.524
		l41.386,279.387c-24.53,8.935-42.145,32.255-42.145,59.88c0,35.316,28.631,63.947,63.947,63.947
		c30.933,0,56.734-21.972,62.659-51.157h130.468c5.926,29.185,31.726,51.157,62.659,51.157s56.734-21.972,62.659-51.157h26.866
		c7.068,0,12.789-5.721,12.789-12.789S505.857,435.059,498.789,435.059z M153.476,486.217c-21.154,0-38.368-17.214-38.368-38.368
		s17.214-38.368,38.368-38.368s38.368,17.214,38.368,38.368S174.63,486.217,153.476,486.217z M409.263,486.217
		c-21.154,0-38.368-17.214-38.368-38.368s17.214-38.368,38.368-38.368s38.368,17.214,38.368,38.368S430.417,486.217,409.263,486.217
		z"/>
	<path style="fill:#573A32;" d="M349.06,162.74c2.498,2.498,5.772,3.743,9.046,3.743c3.274,0,6.548-1.245,9.046-3.743l29.322-29.322
		l29.322,29.322c2.498,2.498,5.772,3.743,9.046,3.743c3.274,0,6.548-1.245,9.046-3.743c4.996-4.996,4.996-13.088,0-18.084
		l-29.322-29.322l29.322-29.322c4.996-4.996,4.996-13.088,0-18.084c-4.996-4.996-13.088-4.996-18.084,0l-29.33,29.313L367.152,67.92
		c-4.996-4.996-13.088-4.996-18.084,0c-4.996,4.996-4.996,13.088,0,18.084l29.322,29.322l-29.322,29.322
		C344.072,149.644,344.072,157.744,349.06,162.74z"/>
	<path style="fill:#573A32;" d="M171.637,336.36c1.799,12.602,12.593,21.964,25.323,21.964h237.882
		c11.417,0,21.461-7.571,24.598-18.553l51.157-179.051c1.782-6.241,0.998-12.815-1.876-18.51c2.072-8.637,3.283-17.607,3.283-26.883
		c0-63.572-51.533-115.104-115.104-115.104S281.796,51.754,281.796,115.326c0,4.331,0.281,8.586,0.75,12.789H179.055h-7.674
		c-7.418,0-14.46,3.214-19.32,8.816c-4.86,5.602-7.051,13.037-5.994,20.378L171.637,336.36z M396.9,25.8
		c49.367,0,89.525,40.159,89.525,89.525s-40.159,89.525-89.525,89.525s-89.525-40.159-89.525-89.525S347.533,25.8,396.9,25.8z
		 M288.489,153.694c15.816,44.677,58.319,76.736,108.411,76.736c28.776,0,55.02-10.632,75.201-28.085l-37.26,130.4H196.96
		l-25.579-179.051L288.489,153.694L288.489,153.694z"/>
</g>
</svg>